# xmcd CD database file
#
# Track frame offsets:
#	150
#	17380
#	35801
#	62163
#	83889
#	99875
#	117552
#	140568
#	159759
#	181649
#
# Disc length: 2720 seconds
#
# Revision: 0
# Processed by: cddbd v1.4PL0 Copyright (c) Steve Scherf et al.
# Submitted via: CDex 1.51
#
DISCID=750a9e0a
DTITLE=Dee Daniels and the Metropole Orchestra - Wish Me Love
DYEAR=1995
DGENRE=Jazz
TTITLE0=Come Rain or Come Shine
TTITLE1=Time After Time
TTITLE2=God Bless The Child
TTITLE3=Love Inside
TTITLE4=Sweet Georgia Brown
TTITLE5=How Long Has This Been Going On?
TTITLE6=Tonight I won't Be Singing No Blues
TTITLE7=Here's That Rainy Day
TTITLE8=Love Is Here To Stay
TTITLE9=Sometimes I Feel Like A Motherless Child
EXTD=YEAR: 1995
EXTT0=
EXTT1=
EXTT2=
EXTT3=
EXTT4=
EXTT5=
EXTT6=
EXTT7=
EXTT8=
EXTT9=
PLAYORDER=
